<svg xmlns="http://www.w3.org/2000/svg" xmlns:v="https://svgstorm.com"
viewBox = "0 0 32 32"
width="32"
height="32">
<g fill="None" fill-opacity="0.0" stroke="#000000" stroke-opacity="0.00" stroke-width="0.3"><path d="
M 0.00 11.00 
C 0.50 11.00 1.00 11.00 1.00 11.00
C 0.95 7.09 5.32 8.10 8.00 8.00
C 7.98 8.00 8.00 7.00 8.00 7.00
C 7.51 4.36 7.42 1.69 10.00 1.00
C 9.75 0.75 10.00 0.00 10.00 0.00
L 0.00 0.00
L 0.00 11.00 Z"/>
</g>
<g fill="None" fill-opacity="0.0" stroke="#508FC3" stroke-opacity="0.25" stroke-width="0.3"><path d="
M 10.00 1.00 
C 10.25 1.25 11.00 1.00 11.00 1.00
C 11.25 0.75 11.00 0.00 11.00 0.00
L 10.00 0.00
C 10.00 0.00 9.75 0.75 10.00 1.00 Z"/>
</g>
<g fill="None" fill-opacity="0.0" stroke="#4E91C3" stroke-opacity="0.55" stroke-width="0.3"><path d="
M 11.00 1.00 
C 11.35 0.97 11.84 0.34 12.00 0.00
L 11.00 0.00
C 11.00 0.00 11.25 0.75 11.00 1.00 Z"/>
</g>
<g fill="None" fill-opacity="0.0" stroke="#4584B6" stroke-opacity="0.90" stroke-width="0.3"><path d="
M 11.00 1.00 
C 11.00 1.00 10.25 1.25 10.00 1.00
C 11.60 2.09 12.26 1.75 12.00 3.00
C 11.88 3.59 12.18 5.05 11.00 5.00
C 9.80 5.24 10.39 2.70 9.00 3.00
C 9.00 4.33 9.00 5.67 9.00 7.00
C 11.31 6.78 13.68 7.16 16.00 7.00
C 14.23 9.03 10.52 7.53 8.00 8.00
C 5.32 8.10 0.95 7.09 1.00 11.00
C 1.25 11.25 1.00 12.00 1.00 12.00
C 1.20 14.13 1.61 17.67 0.00 19.00
L 0.00 21.00
C 1.28 23.69 3.97 24.45 7.00 24.00
C 6.97 23.98 7.98 23.19 8.00 23.00
C 7.24 17.94 9.94 14.51 16.00 16.00 C 22.06 17.49 24.00 13.50 24.00 8.00
C 24.00 5.01 24.31 2.17 22.00 0.00
L 21.00 0.00
C 21.23 1.05 19.80 0.74 20.00 0.00
L 12.00 0.00
C 11.84 0.34 11.35 0.97 11.00 1.00 Z"/>
</g>
<g fill="None" fill-opacity="0.0" stroke="#4484B7" stroke-opacity="0.51" stroke-width="0.3"><path d="
M 21.00 0.00 
L 20.00 0.00
C 19.80 0.74 21.23 1.05 21.00 0.00 Z"/>
</g>
<g fill="None" fill-opacity="0.0" stroke="#000000" stroke-opacity="0.00" stroke-width="0.3"><path d="
M 24.00 8.00 
C 26.68 8.07 31.05 7.06 31.00 11.00
C 31.25 10.75 32.00 11.00 32.00 11.00
L 32.00 0.00
L 22.00 0.00
C 24.31 2.17 24.00 5.01 24.00 8.00 Z"/>
</g>
<g fill="None" fill-opacity="0.0" stroke="#4E8EC4" stroke-opacity="0.57" stroke-width="0.3"><path d="
M 8.00 7.00 
C 8.25 6.75 9.00 7.00 9.00 7.00
C 9.00 5.67 9.00 4.33 9.00 3.00
C 10.39 2.70 9.80 5.24 11.00 5.00
C 10.05 4.05 11.83 3.35 12.00 3.00
C 12.26 1.75 11.60 2.09 10.00 1.00
C 7.42 1.69 7.51 4.36 8.00 7.00 Z"/>
</g>
<g fill="None" fill-opacity="0.0" stroke="#000000" stroke-opacity="0.00" stroke-width="0.3"><path d="
M 11.00 5.00 
C 12.18 5.05 11.88 3.59 12.00 3.00
C 11.83 3.35 10.05 4.05 11.00 5.00 Z"/>
</g>
<g fill="None" fill-opacity="0.0" stroke="#4888BB" stroke-opacity="0.18" stroke-width="0.3"><path d="
M 8.00 8.00 
C 10.52 7.53 14.23 9.03 16.00 7.00
C 13.68 7.16 11.31 6.78 9.00 7.00
C 9.00 7.00 8.25 6.75 8.00 7.00
C 8.00 7.00 7.98 8.00 8.00 8.00 Z"/>
</g>
<g fill="None" fill-opacity="0.0" stroke="#FFDD56" stroke-opacity="0.91" stroke-width="0.3"><path d="
M 8.00 23.00 
C 8.07 23.49 8.00 24.00 8.00 24.00
C 7.71 26.66 7.31 31.05 11.00 31.00
C 11.25 30.75 12.00 31.00 12.00 31.00
C 12.35 31.03 12.84 31.67 13.00 32.00
L 19.00 32.00
C 19.17 31.67 19.65 31.03 20.00 31.00
C 20.50 30.95 21.00 31.00 21.00 31.00
C 25.65 31.06 22.39 26.94 24.00 25.00
C 21.65 25.41 17.57 25.48 16.00 24.00
C 18.94 22.43 25.13 22.29 28.00 24.00
C 29.73 23.50 31.12 23.34 31.00 21.00
C 30.97 20.50 31.00 20.00 31.00 20.00
C 31.00 19.50 31.00 19.00 31.00 19.00
C 31.03 18.65 31.67 18.17 32.00 18.00
L 32.00 13.00
C 31.67 12.84 31.03 12.35 31.00 12.00
C 30.95 11.50 31.00 11.00 31.00 11.00
C 31.05 7.06 26.68 8.07 24.00 8.00
C 24.00 13.50 22.06 17.49 16.00 16.00 C 9.94 14.51 7.24 17.94 8.00 23.00
M 20.00 29.00 
C 19.14 30.49 19.18 25.59 20.00 27.00
C 21.11 22.70 21.14 33.41 20.00 29.00 Z"/>
</g>
<g fill="None" fill-opacity="0.0" stroke="#528FC3" stroke-opacity="0.13" stroke-width="0.3"><path d="
M 0.00 12.00 
C 0.50 12.00 1.00 12.00 1.00 12.00
C 1.00 12.00 1.25 11.25 1.00 11.00
C 1.00 11.00 0.50 11.00 0.00 11.00
L 0.00 12.00 Z"/>
</g>
<g fill="None" fill-opacity="0.0" stroke="#FEDF55" stroke-opacity="0.09" stroke-width="0.3"><path d="
M 31.00 12.00 
C 31.25 12.25 32.00 12.00 32.00 12.00
L 32.00 11.00
C 32.00 11.00 31.25 10.75 31.00 11.00
C 31.00 11.00 30.95 11.50 31.00 12.00 Z"/>
</g>
<g fill="None" fill-opacity="0.0" stroke="#4C8DC0" stroke-opacity="0.66" stroke-width="0.3"><path d="
M 0.00 19.00 
C 1.61 17.67 1.20 14.13 1.00 12.00
C 1.00 12.00 0.50 12.00 0.00 12.00
L 0.00 19.00 Z"/>
</g>
<g fill="None" fill-opacity="0.0" stroke="#FEDF57" stroke-opacity="0.35" stroke-width="0.3"><path d="
M 32.00 13.00 
L 32.00 12.00
C 32.00 12.00 31.25 12.25 31.00 12.00
C 31.03 12.35 31.67 12.84 32.00 13.00 Z"/>
</g>
<g fill="None" fill-opacity="0.0" stroke="#FEDB4F" stroke-opacity="0.58" stroke-width="0.3"><path d="
M 31.00 19.00 
C 31.25 18.75 32.00 19.00 32.00 19.00
L 32.00 18.00
C 31.67 18.17 31.03 18.65 31.00 19.00 Z"/>
</g>
<g fill="None" fill-opacity="0.0" stroke="#FEDB4C" stroke-opacity="0.33" stroke-width="0.3"><path d="
M 31.00 20.00 
C 31.25 19.75 32.00 20.00 32.00 20.00
L 32.00 19.00
C 32.00 19.00 31.25 18.75 31.00 19.00
C 31.00 19.00 31.00 19.50 31.00 20.00 Z"/>
</g>
<g fill="None" fill-opacity="0.0" stroke="#FEE64D" stroke-opacity="0.04" stroke-width="0.3"><path d="
M 31.00 21.00 
C 31.25 21.25 32.00 21.00 32.00 21.00
L 32.00 20.00
C 32.00 20.00 31.25 19.75 31.00 20.00
C 31.00 20.00 30.97 20.50 31.00 21.00 Z"/>
</g>
<g fill="None" fill-opacity="0.0" stroke="#000000" stroke-opacity="0.00" stroke-width="0.3"><path d="
M 0.00 32.00 
L 11.00 32.00
C 11.00 31.50 11.00 31.00 11.00 31.00
C 7.31 31.05 7.71 26.66 8.00 24.00
C 7.75 24.25 7.00 24.00 7.00 24.00
C 3.97 24.45 1.28 23.69 0.00 21.00
L 0.00 32.00 Z"/>
</g>
<g fill="None" fill-opacity="0.0" stroke="#000000" stroke-opacity="0.00" stroke-width="0.3"><path d="
M 28.00 24.00 
C 27.05 24.27 24.57 24.90 24.00 25.00
C 22.39 26.94 25.65 31.06 21.00 31.00
C 21.25 31.25 21.00 32.00 21.00 32.00
L 32.00 32.00
L 32.00 21.00
C 32.00 21.00 31.25 21.25 31.00 21.00
C 31.12 23.34 29.73 23.50 28.00 24.00 Z"/>
</g>
<g fill="None" fill-opacity="0.0" stroke="#427CAE" stroke-opacity="0.26" stroke-width="0.3"><path d="
M 7.00 24.00 
C 7.00 24.00 7.75 24.25 8.00 24.00
C 8.00 24.00 8.07 23.49 8.00 23.00
C 7.98 23.19 6.97 23.98 7.00 24.00 Z"/>
</g>
<g fill="None" fill-opacity="0.0" stroke="#FFDB50" stroke-opacity="0.54" stroke-width="0.3"><path d="
M 24.00 25.00 
C 24.57 24.90 27.05 24.27 28.00 24.00
C 25.13 22.29 18.94 22.43 16.00 24.00
C 17.57 25.48 21.65 25.41 24.00 25.00 Z"/>
</g>
<g fill="None" fill-opacity="0.0" stroke="#FFDA4A" stroke-opacity="0.51" stroke-width="0.3"><path d="
M 20.00 27.00 
C 20.86 25.51 20.82 30.41 20.00 29.00
C 21.14 33.41 21.11 22.70 20.00 27.00 Z"/>
</g>
<g fill="None" fill-opacity="0.0" stroke="#FFE246" stroke-opacity="0.04" stroke-width="0.3"><path d="
M 20.00 29.00 
C 19.78 28.62 20.22 27.38 20.00 27.00
C 19.18 25.59 19.14 30.49 20.00 29.00 Z"/>
</g>
<g fill="None" fill-opacity="0.0" stroke="#000000" stroke-opacity="0.00" stroke-width="0.3"><path d="
M 20.00 29.00 
C 20.82 30.41 20.86 25.51 20.00 27.00
C 20.22 27.38 19.78 28.62 20.00 29.00 Z"/>
</g>
<g fill="None" fill-opacity="0.0" stroke="#FEDA50" stroke-opacity="0.19" stroke-width="0.3"><path d="
M 11.00 32.00 
L 12.00 32.00
C 12.00 31.50 12.00 31.00 12.00 31.00
C 12.00 31.00 11.25 30.75 11.00 31.00
C 11.00 31.00 11.00 31.50 11.00 32.00 Z"/>
</g>
<g fill="None" fill-opacity="0.0" stroke="#FEDC50" stroke-opacity="0.51" stroke-width="0.3"><path d="
M 12.00 32.00 
L 13.00 32.00
C 12.84 31.67 12.35 31.03 12.00 31.00
C 12.00 31.00 12.00 31.50 12.00 32.00 Z"/>
</g>
<g fill="None" fill-opacity="0.0" stroke="#FED949" stroke-opacity="0.49" stroke-width="0.3"><path d="
M 19.00 32.00 
L 20.00 32.00
C 20.00 31.50 20.00 31.00 20.00 31.00
C 19.65 31.03 19.17 31.67 19.00 32.00 Z"/>
</g>
<g fill="None" fill-opacity="0.0" stroke="#FED848" stroke-opacity="0.18" stroke-width="0.3"><path d="
M 20.00 32.00 
L 21.00 32.00
C 21.00 32.00 21.25 31.25 21.00 31.00
C 21.00 31.00 20.50 30.95 20.00 31.00
C 20.00 31.00 20.00 31.50 20.00 32.00 Z"/>
</g>
<g fill="#000000" fill-opacity="0.00" stroke="None">
<path d="
M 0.00 11.00 
C 0.50 11.00 1.00 11.00 1.00 11.00
C 0.95 7.09 5.32 8.10 8.00 8.00
C 7.98 8.00 8.00 7.00 8.00 7.00
C 7.51 4.36 7.42 1.69 10.00 1.00
C 9.75 0.75 10.00 0.00 10.00 0.00
L 0.00 0.00
L 0.00 11.00 Z"/>
</g>
<g fill="#508FC3" fill-opacity="0.25" stroke="None">
<path d="
M 10.00 1.00 
C 10.25 1.25 11.00 1.00 11.00 1.00
C 11.25 0.75 11.00 0.00 11.00 0.00
L 10.00 0.00
C 10.00 0.00 9.75 0.75 10.00 1.00 Z"/>
</g>
<g fill="#4E91C3" fill-opacity="0.55" stroke="None">
<path d="
M 11.00 1.00 
C 11.35 0.97 11.84 0.34 12.00 0.00
L 11.00 0.00
C 11.00 0.00 11.25 0.75 11.00 1.00 Z"/>
</g>
<g fill="#4584B6" fill-opacity="0.90" stroke="None">
<path d="
M 11.00 1.00 
C 11.00 1.00 10.25 1.25 10.00 1.00
C 11.60 2.09 12.26 1.75 12.00 3.00
C 11.88 3.59 12.18 5.05 11.00 5.00
C 9.80 5.24 10.39 2.70 9.00 3.00
C 9.00 4.33 9.00 5.67 9.00 7.00
C 11.31 6.78 13.68 7.16 16.00 7.00
C 14.23 9.03 10.52 7.53 8.00 8.00
C 5.32 8.10 0.95 7.09 1.00 11.00
C 1.25 11.25 1.00 12.00 1.00 12.00
C 1.20 14.13 1.61 17.67 0.00 19.00
L 0.00 21.00
C 1.28 23.69 3.97 24.45 7.00 24.00
C 6.97 23.98 7.98 23.19 8.00 23.00
C 7.24 17.94 9.94 14.51 16.00 16.00 C 22.06 17.49 24.00 13.50 24.00 8.00
C 24.00 5.01 24.31 2.17 22.00 0.00
L 21.00 0.00
C 21.23 1.05 19.80 0.74 20.00 0.00
L 12.00 0.00
C 11.84 0.34 11.35 0.97 11.00 1.00 Z"/>
</g>
<g fill="#4484B7" fill-opacity="0.51" stroke="None">
<path d="
M 21.00 0.00 
L 20.00 0.00
C 19.80 0.74 21.23 1.05 21.00 0.00 Z"/>
</g>
<g fill="#000000" fill-opacity="0.00" stroke="None">
<path d="
M 24.00 8.00 
C 26.68 8.07 31.05 7.06 31.00 11.00
C 31.25 10.75 32.00 11.00 32.00 11.00
L 32.00 0.00
L 22.00 0.00
C 24.31 2.17 24.00 5.01 24.00 8.00 Z"/>
</g>
<g fill="#4E8EC4" fill-opacity="0.57" stroke="None">
<path d="
M 8.00 7.00 
C 8.25 6.75 9.00 7.00 9.00 7.00
C 9.00 5.67 9.00 4.33 9.00 3.00
C 10.39 2.70 9.80 5.24 11.00 5.00
C 10.05 4.05 11.83 3.35 12.00 3.00
C 12.26 1.75 11.60 2.09 10.00 1.00
C 7.42 1.69 7.51 4.36 8.00 7.00 Z"/>
</g>
<g fill="#000000" fill-opacity="0.00" stroke="None">
<path d="
M 11.00 5.00 
C 12.18 5.05 11.88 3.59 12.00 3.00
C 11.83 3.35 10.05 4.05 11.00 5.00 Z"/>
</g>
<g fill="#4888BB" fill-opacity="0.18" stroke="None">
<path d="
M 8.00 8.00 
C 10.52 7.53 14.23 9.03 16.00 7.00
C 13.68 7.16 11.31 6.78 9.00 7.00
C 9.00 7.00 8.25 6.75 8.00 7.00
C 8.00 7.00 7.98 8.00 8.00 8.00 Z"/>
</g>
<g fill="#FFDD56" fill-opacity="0.91" stroke="None">
<path d="
M 8.00 23.00 
C 8.07 23.49 8.00 24.00 8.00 24.00
C 7.71 26.66 7.31 31.05 11.00 31.00
C 11.25 30.75 12.00 31.00 12.00 31.00
C 12.35 31.03 12.84 31.67 13.00 32.00
L 19.00 32.00
C 19.17 31.67 19.65 31.03 20.00 31.00
C 20.50 30.95 21.00 31.00 21.00 31.00
C 25.65 31.06 22.39 26.94 24.00 25.00
C 21.65 25.41 17.57 25.48 16.00 24.00
C 18.94 22.43 25.13 22.29 28.00 24.00
C 29.73 23.50 31.12 23.34 31.00 21.00
C 30.97 20.50 31.00 20.00 31.00 20.00
C 31.00 19.50 31.00 19.00 31.00 19.00
C 31.03 18.65 31.67 18.17 32.00 18.00
L 32.00 13.00
C 31.67 12.84 31.03 12.35 31.00 12.00
C 30.95 11.50 31.00 11.00 31.00 11.00
C 31.05 7.06 26.68 8.07 24.00 8.00
C 24.00 13.50 22.06 17.49 16.00 16.00 C 9.94 14.51 7.24 17.94 8.00 23.00
M 20.00 29.00 
C 19.14 30.49 19.18 25.59 20.00 27.00
C 21.11 22.70 21.14 33.41 20.00 29.00 Z"/>
</g>
<g fill="#528FC3" fill-opacity="0.13" stroke="None">
<path d="
M 0.00 12.00 
C 0.50 12.00 1.00 12.00 1.00 12.00
C 1.00 12.00 1.25 11.25 1.00 11.00
C 1.00 11.00 0.50 11.00 0.00 11.00
L 0.00 12.00 Z"/>
</g>
<g fill="#FEDF55" fill-opacity="0.09" stroke="None">
<path d="
M 31.00 12.00 
C 31.25 12.25 32.00 12.00 32.00 12.00
L 32.00 11.00
C 32.00 11.00 31.25 10.75 31.00 11.00
C 31.00 11.00 30.95 11.50 31.00 12.00 Z"/>
</g>
<g fill="#4C8DC0" fill-opacity="0.66" stroke="None">
<path d="
M 0.00 19.00 
C 1.61 17.67 1.20 14.13 1.00 12.00
C 1.00 12.00 0.50 12.00 0.00 12.00
L 0.00 19.00 Z"/>
</g>
<g fill="#FEDF57" fill-opacity="0.35" stroke="None">
<path d="
M 32.00 13.00 
L 32.00 12.00
C 32.00 12.00 31.25 12.25 31.00 12.00
C 31.03 12.35 31.67 12.84 32.00 13.00 Z"/>
</g>
<g fill="#FEDB4F" fill-opacity="0.58" stroke="None">
<path d="
M 31.00 19.00 
C 31.25 18.75 32.00 19.00 32.00 19.00
L 32.00 18.00
C 31.67 18.17 31.03 18.65 31.00 19.00 Z"/>
</g>
<g fill="#FEDB4C" fill-opacity="0.33" stroke="None">
<path d="
M 31.00 20.00 
C 31.25 19.75 32.00 20.00 32.00 20.00
L 32.00 19.00
C 32.00 19.00 31.25 18.75 31.00 19.00
C 31.00 19.00 31.00 19.50 31.00 20.00 Z"/>
</g>
<g fill="#FEE64D" fill-opacity="0.04" stroke="None">
<path d="
M 31.00 21.00 
C 31.25 21.25 32.00 21.00 32.00 21.00
L 32.00 20.00
C 32.00 20.00 31.25 19.75 31.00 20.00
C 31.00 20.00 30.97 20.50 31.00 21.00 Z"/>
</g>
<g fill="#000000" fill-opacity="0.00" stroke="None">
<path d="
M 0.00 32.00 
L 11.00 32.00
C 11.00 31.50 11.00 31.00 11.00 31.00
C 7.31 31.05 7.71 26.66 8.00 24.00
C 7.75 24.25 7.00 24.00 7.00 24.00
C 3.97 24.45 1.28 23.69 0.00 21.00
L 0.00 32.00 Z"/>
</g>
<g fill="#000000" fill-opacity="0.00" stroke="None">
<path d="
M 28.00 24.00 
C 27.05 24.27 24.57 24.90 24.00 25.00
C 22.39 26.94 25.65 31.06 21.00 31.00
C 21.25 31.25 21.00 32.00 21.00 32.00
L 32.00 32.00
L 32.00 21.00
C 32.00 21.00 31.25 21.25 31.00 21.00
C 31.12 23.34 29.73 23.50 28.00 24.00 Z"/>
</g>
<g fill="#427CAE" fill-opacity="0.26" stroke="None">
<path d="
M 7.00 24.00 
C 7.00 24.00 7.75 24.25 8.00 24.00
C 8.00 24.00 8.07 23.49 8.00 23.00
C 7.98 23.19 6.97 23.98 7.00 24.00 Z"/>
</g>
<g fill="#FFDB50" fill-opacity="0.54" stroke="None">
<path d="
M 24.00 25.00 
C 24.57 24.90 27.05 24.27 28.00 24.00
C 25.13 22.29 18.94 22.43 16.00 24.00
C 17.57 25.48 21.65 25.41 24.00 25.00 Z"/>
</g>
<g fill="#FFDA4A" fill-opacity="0.51" stroke="None">
<path d="
M 20.00 27.00 
C 20.86 25.51 20.82 30.41 20.00 29.00
C 21.14 33.41 21.11 22.70 20.00 27.00 Z"/>
</g>
<g fill="#FFE246" fill-opacity="0.04" stroke="None">
<path d="
M 20.00 29.00 
C 19.78 28.62 20.22 27.38 20.00 27.00
C 19.18 25.59 19.14 30.49 20.00 29.00 Z"/>
</g>
<g fill="#000000" fill-opacity="0.00" stroke="None">
<path d="
M 20.00 29.00 
C 20.82 30.41 20.86 25.51 20.00 27.00
C 20.22 27.38 19.78 28.62 20.00 29.00 Z"/>
</g>
<g fill="#FEDA50" fill-opacity="0.19" stroke="None">
<path d="
M 11.00 32.00 
L 12.00 32.00
C 12.00 31.50 12.00 31.00 12.00 31.00
C 12.00 31.00 11.25 30.75 11.00 31.00
C 11.00 31.00 11.00 31.50 11.00 32.00 Z"/>
</g>
<g fill="#FEDC50" fill-opacity="0.51" stroke="None">
<path d="
M 12.00 32.00 
L 13.00 32.00
C 12.84 31.67 12.35 31.03 12.00 31.00
C 12.00 31.00 12.00 31.50 12.00 32.00 Z"/>
</g>
<g fill="#FED949" fill-opacity="0.49" stroke="None">
<path d="
M 19.00 32.00 
L 20.00 32.00
C 20.00 31.50 20.00 31.00 20.00 31.00
C 19.65 31.03 19.17 31.67 19.00 32.00 Z"/>
</g>
<g fill="#FED848" fill-opacity="0.18" stroke="None">
<path d="
M 20.00 32.00 
L 21.00 32.00
C 21.00 32.00 21.25 31.25 21.00 31.00
C 21.00 31.00 20.50 30.95 20.00 31.00
C 20.00 31.00 20.00 31.50 20.00 32.00 Z"/>
</g>
</svg>